{
	"patcher" : 	{
		"fileversion" : 1,
		"appversion" : 		{
			"major" : 8,
			"minor" : 3,
			"revision" : 1,
			"architecture" : "x64",
			"modernui" : 1
		}
,
		"classnamespace" : "dsp.gen",
		"rect" : [ 84.0, 132.0, 633.0, 789.0 ],
		"bglocked" : 0,
		"openinpresentation" : 0,
		"default_fontsize" : 12.0,
		"default_fontface" : 0,
		"default_fontname" : "Lato",
		"gridonopen" : 1,
		"gridsize" : [ 15.0, 15.0 ],
		"gridsnaponopen" : 1,
		"objectsnaponopen" : 1,
		"statusbarvisible" : 2,
		"toolbarvisible" : 1,
		"lefttoolbarpinned" : 0,
		"toptoolbarpinned" : 0,
		"righttoolbarpinned" : 0,
		"bottomtoolbarpinned" : 0,
		"toolbars_unpinned_last_save" : 0,
		"tallnewobj" : 0,
		"boxanimatetime" : 200,
		"enablehscroll" : 1,
		"enablevscroll" : 1,
		"devicewidth" : 0.0,
		"description" : "",
		"digest" : "",
		"tags" : "",
		"style" : "",
		"subpatcher_template" : "",
		"assistshowspatchername" : 0,
		"boxes" : [ 			{
				"box" : 				{
					"fontname" : "Lato",
					"fontsize" : 12.0,
					"id" : "obj-9",
					"maxclass" : "newobj",
					"numinlets" : 1,
					"numoutlets" : 0,
					"patching_rect" : [ 553.0, 748.0, 37.0, 23.0 ],
					"text" : "out 2"
				}

			}
, 			{
				"box" : 				{
					"fontname" : "Lato",
					"fontsize" : 12.0,
					"id" : "obj-1",
					"maxclass" : "newobj",
					"numinlets" : 0,
					"numoutlets" : 1,
					"outlettype" : [ "" ],
					"patching_rect" : [ 50.0, 7.0, 29.0, 23.0 ],
					"text" : "in 1"
				}

			}
, 			{
				"box" : 				{
					"code" : "// a 'maraca' sound\r\nmaraca(level, c0, c1) {\r\n\tHistory output0, output1;\r\n\t// source is just enveloped noise:\r\n\tinput = level * noise();\r\n\t// resonant gourd filter:\r\n\tinput = input - output0 * c0;\n\tinput = input - output1 * c1;\r\n\toutput1 = output0;\n\toutput0 = input; \r\n\t// high pass out:\r\n\treturn output0 - output1;\r\n}\r\n\r\nParam num_objects(25, min=1);\r\nParam res_freq(3200.0);\r\nParam shake_damp(0.5, min=0, max=1);\r\n\r\nHistory shakeEnergy(0);\t\t\t\t\t// energy in the system\r\nHistory sndLevel(0);\t\t\t\t\t// sound envelope\r\nHistory coeffs0(-1.72), \r\n\t\tcoeffs1(0.9216);\t\t\t\t// filter coefficients\r\nHistory gain(10);\t\t\t\t\t\t// compensating amplification\r\n\r\n// only re-calculate when param changes:\r\nif (change(num_objects)) {\r\n\tgain = log(num_objects) / log(4.0) * 120.0 / num_objects; \r\n}\r\n// only re-calculate when param changes:\r\nif (change(res_freq)) {\r\n\tcoeffs0 = -0.96 * 2.0 * cos(res_freq * TWOPI / samplerate);\r\n}\r\ncoeffs1 = 0.9216;\r\nsoundDecay = 0.95;\r\nsystemDecay = .998 + (shake_damp * .002);\r\n\r\n// system energy input:\r\nshakeEnergy = clip(shakeEnergy + in1 * 0.001, -1, 1);\r\n\r\n// if collision, add energy:\r\nif (noise() * 1024 < num_objects) {\t \r\n\tsndLevel += gain * shakeEnergy;\r\n}\r\n\r\n// use the energy:\r\nout1 = maraca(sndLevel, coeffs0, coeffs1);\nout2 = maraca(sndLevel, coeffs0, coeffs1);\r\n\r\n// it all ends in exponential decay (entropy):\r\nshakeEnergy *= systemDecay;\r\nsndLevel *= soundDecay;",
					"fontface" : 0,
					"fontname" : "Lucida Console",
					"fontsize" : 12.0,
					"id" : "obj-3",
					"maxclass" : "codebox",
					"numinlets" : 1,
					"numoutlets" : 2,
					"outlettype" : [ "", "" ],
					"patching_rect" : [ 50.0, 34.0, 522.0, 707.0 ]
				}

			}
, 			{
				"box" : 				{
					"fontname" : "Lato",
					"fontsize" : 12.0,
					"id" : "obj-4",
					"maxclass" : "newobj",
					"numinlets" : 1,
					"numoutlets" : 0,
					"patching_rect" : [ 50.0, 748.0, 37.0, 23.0 ],
					"text" : "out 1"
				}

			}
 ],
		"lines" : [ 			{
				"patchline" : 				{
					"destination" : [ "obj-3", 0 ],
					"source" : [ "obj-1", 0 ]
				}

			}
, 			{
				"patchline" : 				{
					"destination" : [ "obj-4", 0 ],
					"source" : [ "obj-3", 0 ]
				}

			}
, 			{
				"patchline" : 				{
					"destination" : [ "obj-9", 0 ],
					"source" : [ "obj-3", 1 ]
				}

			}
 ],
		"bgcolor" : [ 0.9, 0.9, 0.9, 1.0 ],
		"editing_bgcolor" : [ 0.9, 0.9, 0.9, 1.0 ]
	}

}
